<svg width="156" height="131" viewBox="0 0 156 131" fill="none" xmlns="http://www.w3.org/2000/svg">
<g opacity="0.3">
<path d="M89.97 130.865C53.8326 130.865 0.000411987 122.317 0.000411987 86.1793C0.000411987 50.0419 53.8326 0 89.97 0C126.107 0 155.402 29.2951 155.402 65.4324C155.402 101.57 126.107 130.865 89.97 130.865Z" fill="url(#paint0_linear_32_2765)"/>
<mask id="mask0_32_2765" style="mask-type:luminance" maskUnits="userSpaceOnUse" x="0" y="0" width="156" height="131">
<path d="M89.97 130.865C53.8326 130.865 0.000411987 122.317 0.000411987 86.1793C0.000411987 50.0419 53.8326 0 89.97 0C126.107 0 155.402 29.2951 155.402 65.4324C155.402 101.57 126.107 130.865 89.97 130.865Z" fill="white"/>
</mask>
<g mask="url(#mask0_32_2765)">
</g>
</g>
<defs>
<linearGradient id="paint0_linear_32_2765" x1="69.9313" y1="-20.5991" x2="63.712" y2="211.293" gradientUnits="userSpaceOnUse">
<stop stop-color="#FD749B"/>
<stop offset="1" stop-color="#281AC8"/>
</linearGradient>
</defs>
</svg>
